<svg width="2815" height="1728" viewBox="0 0 2815 1728" fill="none" xmlns="http://www.w3.org/2000/svg">
<rect width="2815" height="1728" fill="white"/>
<rect x="1" y="2" width="2813" height="1724" fill="#099EA2"/>
<line x1="1" y1="74" x2="2814" y2="74" stroke="#4FC8C8" stroke-width="6"/>
<line x1="1" y1="131" x2="2814" y2="131" stroke="#4FC8C8" stroke-width="6"/>
<line x1="1" y1="26" x2="2814" y2="26" stroke="#4FC8C8" stroke-width="6"/>
<line x1="153" y1="1723.01" x2="153" y2="1.99487" stroke="#4FC8C8" stroke-width="6"/>
<line x1="153" y1="1723.01" x2="153" y2="1.99487" stroke="#4FC8C8" stroke-width="6"/>
<line x1="27" y1="1721.01" x2="27" stroke="#4FC8C8" stroke-width="6"/>
<line x1="283" y1="1723.01" x2="283" y2="2" stroke="#4FC8C8" stroke-width="6"/>
<line x1="410" y1="1723.02" x2="410" y2="2.00513" stroke="#4FC8C8" stroke-width="6"/>
<line x1="537" y1="1723.02" x2="537" y2="2.0105" stroke="#4FC8C8" stroke-width="6"/>
<line x1="662" y1="1723.03" x2="662" y2="2.01562" stroke="#4FC8C8" stroke-width="6"/>
<line x1="788" y1="1723.03" x2="788" y2="2.021" stroke="#4FC8C8" stroke-width="6"/>
<line x1="913" y1="1723.04" x2="913" y2="2.02612" stroke="#4FC8C8" stroke-width="6"/>
<line x1="1043" y1="1723.04" x2="1043" y2="2.03149" stroke="#4FC8C8" stroke-width="6"/>
<line x1="1167" y1="1723.05" x2="1167" y2="2.03662" stroke="#4FC8C8" stroke-width="6"/>
<line x1="1295" y1="1723.05" x2="1295" y2="2.04175" stroke="#4FC8C8" stroke-width="6"/>
<line x1="1419" y1="1723.06" x2="1419" y2="2.04712" stroke="#4FC8C8" stroke-width="6"/>
<line x1="1550" y1="1723.06" x2="1550" y2="2.05225" stroke="#4FC8C8" stroke-width="6"/>
<line x1="1671" y1="1723.07" x2="1671" y2="2.05762" stroke="#4FC8C8" stroke-width="6"/>
<line x1="1797" y1="1723.07" x2="1797" y2="2.06274" stroke="#4FC8C8" stroke-width="6"/>
<line x1="1922" y1="1723.08" x2="1922" y2="2.06812" stroke="#4FC8C8" stroke-width="6"/>
<line x1="2046" y1="1723.08" x2="2046" y2="2.07324" stroke="#4FC8C8" stroke-width="6"/>
<line x1="2172" y1="1723.09" x2="2172" y2="2.07861" stroke="#4FC8C8" stroke-width="6"/>
<line x1="2295" y1="1723.09" x2="2295" y2="2.08374" stroke="#4FC8C8" stroke-width="6"/>
<line x1="2421" y1="1723.1" x2="2421" y2="2.08887" stroke="#4FC8C8" stroke-width="6"/>
<line x1="2547" y1="1723.1" x2="2547" y2="2.09424" stroke="#4FC8C8" stroke-width="6"/>
<line x1="2673" y1="1723.11" x2="2673" y2="2.09937" stroke="#4FC8C8" stroke-width="6"/>
<circle cx="943" cy="904" r="48" fill="#D9D9D9" stroke="black" stroke-width="4"/>
<line x1="2799" y1="1723.12" x2="2799" y2="2.10474" stroke="#4FC8C8" stroke-width="6"/>
<line x1="1" y1="184" x2="2814" y2="184" stroke="#4FC8C8" stroke-width="6"/>
<line x1="1" y1="249" x2="2814" y2="249" stroke="#4FC8C8" stroke-width="6"/>
<line x1="1" y1="339" x2="2814" y2="339" stroke="#4FC8C8" stroke-width="6"/>
<line x1="1" y1="420" x2="2814" y2="420" stroke="#4FC8C8" stroke-width="6"/>
<line x1="1" y1="509" x2="2814" y2="509" stroke="#4FC8C8" stroke-width="6"/>
<line x1="1" y1="596" x2="2814" y2="596" stroke="#4FC8C8" stroke-width="6"/>
<line x1="1" y1="676" x2="2814" y2="676" stroke="#4FC8C8" stroke-width="6"/>
<line x1="1" y1="769" x2="2814" y2="769" stroke="#4FC8C8" stroke-width="6"/>
<line x1="1" y1="858" x2="2814" y2="858" stroke="#4FC8C8" stroke-width="6"/>
<line x1="1" y1="942" x2="2814" y2="942" stroke="#4FC8C8" stroke-width="6"/>
<line x1="1" y1="1029" x2="2814" y2="1029" stroke="#4FC8C8" stroke-width="6"/>
<line x1="1" y1="1114" x2="2814" y2="1114" stroke="#4FC8C8" stroke-width="6"/>
<line x1="1" y1="1203" x2="2814" y2="1203" stroke="#4FC8C8" stroke-width="6"/>
<line x1="1" y1="1290" x2="2814" y2="1290" stroke="#4FC8C8" stroke-width="6"/>
<line x1="1" y1="1380" x2="2814" y2="1380" stroke="#4FC8C8" stroke-width="6"/>
<line x1="1" y1="1466" x2="2814" y2="1466" stroke="#4FC8C8" stroke-width="6"/>
<line x1="1" y1="1555" x2="2814" y2="1555" stroke="#4FC8C8" stroke-width="6"/>
<line x1="1" y1="1633" x2="2814" y2="1633" stroke="#4FC8C8" stroke-width="6"/>
<line y1="1696" x2="2813" y2="1696" stroke="#4FC8C8" stroke-width="6"/>
<line x1="1" y1="1720" x2="2814" y2="1720" stroke="#4FC8C8" stroke-width="6"/>
<g filter="url(#filter0_d_21_30)">
<rect x="252" y="191" width="2341" height="1340" rx="52" fill="#D9F9E9"/>
<rect x="231" y="170" width="2383" height="1382" rx="73" stroke="#585F6E" stroke-width="42"/>
</g>
<line x1="327" y1="191" x2="327" y2="1531" stroke="#EDFEF9" stroke-width="4"/>
<line x1="511" y1="191" x2="511" y2="1531" stroke="#EDFEF9" stroke-width="4"/>
<line x1="603" y1="191" x2="603" y2="1531" stroke="#EDFEF9" stroke-width="4"/>
<line x1="787" y1="191" x2="787" y2="1531" stroke="#EDFEF9" stroke-width="4"/>
<line x1="879" y1="191" x2="879" y2="1531" stroke="#EDFEF9" stroke-width="4"/>
<line x1="971" y1="191" x2="971" y2="1531" stroke="#EDFEF9" stroke-width="4"/>
<line x1="1155" y1="191" x2="1155" y2="1531" stroke="#EDFEF9" stroke-width="4"/>
<line x1="1247" y1="191" x2="1247" y2="1531" stroke="#EDFEF9" stroke-width="4"/>
<line x1="1339" y1="191" x2="1339" y2="1531" stroke="#EDFEF9" stroke-width="4"/>
<line x1="1523" y1="191" x2="1523" y2="1531" stroke="#EDFEF9" stroke-width="4"/>
<line x1="1615" y1="191" x2="1615" y2="1531" stroke="#EDFEF9" stroke-width="4"/>
<line x1="1707" y1="191" x2="1707" y2="1531" stroke="#EDFEF9" stroke-width="4"/>
<line x1="1799" y1="191" x2="1799" y2="1531" stroke="#EDFEF9" stroke-width="4"/>
<line x1="1891" y1="191" x2="1891" y2="1531" stroke="#EDFEF9" stroke-width="4"/>
<line x1="1983" y1="191" x2="1983" y2="1531" stroke="#EDFEF9" stroke-width="4"/>
<line x1="2259" y1="191" x2="2259" y2="1531" stroke="#EDFEF9" stroke-width="4"/>
<line x1="2351" y1="191" x2="2351" y2="1531" stroke="#EDFEF9" stroke-width="4"/>
<line x1="2531" y1="191" x2="2531" y2="1531" stroke="#EDFEF9" stroke-width="4"/>
<line x1="2443" y1="191" x2="2443" y2="1531" stroke="#EDFEF9" stroke-width="4"/>
<line x1="252" y1="421" x2="2593" y2="421" stroke="#EDFEF9" stroke-width="4"/>
<line x1="252" y1="495" x2="2593" y2="495" stroke="#EDFEF9" stroke-width="4"/>
<line x1="252" y1="569" x2="2593" y2="569" stroke="#C0E6DF" stroke-width="4"/>
<line x1="252" y1="643" x2="2593" y2="643" stroke="#EDFEF9" stroke-width="4"/>
<line x1="252" y1="717" x2="2593" y2="717" stroke="#EDFEF9" stroke-width="4"/>
<line x1="252" y1="791" x2="2593" y2="791" stroke="#EDFEF9" stroke-width="4"/>
<line x1="252" y1="865" x2="2593" y2="865" stroke="#EDFEF9" stroke-width="4"/>
<line x1="252" y1="939" x2="2593" y2="939" stroke="#EDFEF9" stroke-width="4"/>
<line x1="252" y1="1013" x2="2593" y2="1013" stroke="#EDFEF9" stroke-width="4"/>
<line x1="252" y1="1087" x2="2593" y2="1087" stroke="#EDFEF9" stroke-width="4"/>
<line x1="252" y1="1161" x2="2593" y2="1161" stroke="#EDFEF9" stroke-width="4"/>
<line x1="252" y1="1235" x2="2593" y2="1235" stroke="#EDFEF9" stroke-width="4"/>
<line x1="252" y1="1309" x2="2593" y2="1309" stroke="#EDFEF9" stroke-width="4"/>
<line x1="252" y1="1383" x2="2593" y2="1383" stroke="#EDFEF9" stroke-width="4"/>
<line x1="252" y1="1457" x2="2593" y2="1457" stroke="#EDFEF9" stroke-width="4"/>
<line x1="2075" y1="191" x2="2075" y2="1531" stroke="#C0E6DF" stroke-width="4"/>
<line x1="419" y1="191" x2="419" y2="1531" stroke="#C0E6DF" stroke-width="4"/>
<line x1="695" y1="191" x2="695" y2="1531" stroke="#C0E6DF" stroke-width="4"/>
<line x1="1063" y1="191" x2="1063" y2="1531" stroke="#C0E6DF" stroke-width="4"/>
<line x1="1431" y1="191" x2="1431" y2="1531" stroke="#C0E6DF" stroke-width="4"/>
<line x1="2167" y1="191" x2="2167" y2="1531" stroke="#C0E6DF" stroke-width="4"/>
<rect x="252" y="252" width="2341" height="260" fill="#5A9999"/>
<rect x="1793" y="286" width="710" height="177" rx="48" fill="#A7DFCF"/>
<rect x="252" y="1206" width="2341" height="253" fill="#86C5BD"/>
<path d="M2593 1206H2269C2269 1040.85 2409.9 904.276 2593 882V1206Z" fill="#C0E6DF"/>
<mask id="path-96-outside-1_21_30" maskUnits="userSpaceOnUse" x="1989" y="549" width="604" height="608" fill="black">
<rect fill="white" x="1989" y="549" width="604" height="608"/>
<path d="M2565 718C2332.73 746.258 2154 919.502 2154 1129H2017C2017 849.669 2255.31 618.678 2565 581V718Z"/>
</mask>
<path d="M2565 718C2332.73 746.258 2154 919.502 2154 1129H2017C2017 849.669 2255.31 618.678 2565 581V718Z" fill="#C0E6DF"/>
<path d="M2565 718L2568.38 745.795L2593 742.8V718H2565ZM2154 1129V1157H2182V1129H2154ZM2017 1129H1989V1157H2017V1129ZM2565 581H2593V549.387L2561.62 553.205L2565 581ZM2565 718L2561.62 690.205C2318.65 719.766 2126 902.216 2126 1129H2154H2182C2182 936.788 2346.82 772.75 2568.38 745.795L2565 718ZM2154 1129V1101H2017V1129V1157H2154V1129ZM2017 1129H2045C2045 866.956 2269.4 645.17 2568.38 608.795L2565 581L2561.62 553.205C2241.22 592.185 1989 832.383 1989 1129H2017ZM2565 581H2537V718H2565H2593V581H2565Z" fill="#C0E6DF" mask="url(#path-96-outside-1_21_30)"/>
<line x1="252" y1="1334" x2="2593" y2="1334" stroke="#649F9D" stroke-width="8"/>
<line x1="252" y1="1356" x2="2593" y2="1356" stroke="#649F9D" stroke-width="8"/>
<line x1="252" y1="1378" x2="2593" y2="1378" stroke="#649F9D" stroke-width="8"/>
<rect x="499" y="1291" width="128" height="128" rx="10" fill="#88C1BA" stroke="#A9DDD2" stroke-width="4"/>
<rect x="745" y="1291" width="128" height="128" rx="10" fill="#88C1BA" stroke="#A9DDD2" stroke-width="4"/>
<rect x="991" y="1291" width="128" height="128" rx="10" fill="#88C1BA" stroke="#A9DDD2" stroke-width="4"/>
<rect x="1237" y="1291" width="128" height="128" rx="10" fill="#88C1BA" stroke="#A9DDD2" stroke-width="4"/>
<rect x="1483" y="1291" width="128" height="128" rx="10" fill="#88C1BA" stroke="#A9DDD2" stroke-width="4"/>
<rect x="1729" y="1291" width="128" height="128" rx="10" fill="#88C1BA" stroke="#A9DDD2" stroke-width="4"/>
<rect x="2047" y="865" width="128" height="128" rx="10" fill="#88C1BA" stroke="#A9DDD2" stroke-width="4"/>
<rect x="2221" y="1291" width="128" height="128" rx="10" fill="#88C1BA" stroke="#A9DDD2" stroke-width="4"/>
<line x1="416.986" y1="664" x2="1673.99" y2="661" stroke="#A1DEC8" stroke-width="12"/>
<line x1="320.986" y1="283" x2="1577.99" y2="280" stroke="#F7CC8A" stroke-width="12"/>
<line x1="320.986" y1="463" x2="1577.99" y2="460" stroke="#F7CC8A" stroke-width="12"/>
<defs>
<filter id="filter0_d_21_30" x="206" y="149" width="2433" height="1432" filterUnits="userSpaceOnUse" color-interpolation-filters="sRGB">
<feFlood flood-opacity="0" result="BackgroundImageFix"/>
<feColorMatrix in="SourceAlpha" type="matrix" values="0 0 0 0 0 0 0 0 0 0 0 0 0 0 0 0 0 0 127 0" result="hardAlpha"/>
<feOffset dy="4"/>
<feGaussianBlur stdDeviation="2"/>
<feComposite in2="hardAlpha" operator="out"/>
<feColorMatrix type="matrix" values="0 0 0 0 0 0 0 0 0 0 0 0 0 0 0 0 0 0 0.25 0"/>
<feBlend mode="normal" in2="BackgroundImageFix" result="effect1_dropShadow_21_30"/>
<feBlend mode="normal" in="SourceGraphic" in2="effect1_dropShadow_21_30" result="shape"/>
</filter>
</defs>
</svg>
